<?xml version="1.0" encoding="UTF-8"?><svg id="a" xmlns="http://www.w3.org/2000/svg" viewBox="0 0 75.84 75.84"><circle cx="37.92" cy="37.92" r="37.92" style="fill:#e2e2e2;"/><path d="M62.68,37.92c0,4.41,0,8.81.01,13.22,0,.43-.12.67-.5.89-7.94,4.58-15.87,9.18-23.79,13.78-.34.2-.59.21-.95,0-7.92-4.61-15.85-9.2-23.79-13.79-.37-.22-.52-.45-.52-.89.01-8.81.01-17.62,0-26.43,0-.44.14-.67.52-.89,7.94-4.59,15.87-9.18,23.79-13.79.4-.23.66-.16,1.01.04,7.91,4.59,15.81,9.18,23.73,13.75.38.22.5.46.5.89-.02,4.4-.01,8.81-.01,13.21Z" style="fill:#010624;"/><path d="M58.4,37.96c0,3.55,0,7.1.01,10.65,0,.47-.14.71-.55.94-6.46,3.73-12.91,7.47-19.35,11.22-.41.24-.72.26-1.14.01-6.44-3.76-12.89-7.5-19.35-11.22-.44-.25-.56-.53-.56-1.01.01-7.12.01-14.24,0-21.36,0-.44.14-.67.52-.89,6.5-3.75,12.99-7.51,19.48-11.29.35-.2.59-.22.95,0,6.51,3.79,13.02,7.56,19.54,11.32.37.21.47.45.46.84-.01,3.6,0,7.19,0,10.79Z" style="fill:#fefefe;"/><path d="M21.25,38.56c0-2.57,0-5.14,0-7.72,0-.82.1-.89.78-.5,4.6,2.66,9.2,5.34,13.81,7.99.49.28.68.65.68,1.22-.01,5.12,0,10.24,0,15.36,0,.83-.1.89-.84.46-4.54-2.63-9.08-5.27-13.63-7.88-.56-.32-.81-.7-.8-1.36.03-2.52.01-5.05.01-7.57Z" style="fill:#010624;"/><path d="M37.91,36.08c-.28.02-.5-.11-.73-.24-4.42-2.56-8.83-5.11-13.25-7.67-.67-.39-.66-.53.03-.93,4.37-2.54,8.75-5.06,13.12-7.61.61-.36,1.12-.33,1.72.02,4.34,2.54,8.7,5.05,13.05,7.58.77.45.77.53-.03.99-4.35,2.52-8.71,5.05-13.06,7.57-.27.16-.53.33-.86.3Z" style="fill:#010624;"/><path d="M39.37,48.11c0-2.28,0-4.57,0-6.85,0-.72.1-.79.71-.44,3.96,2.29,7.92,4.59,11.88,6.89.59.34.59.51-.02.86-3.94,2.29-7.88,4.57-11.82,6.85-.64.37-.75.3-.76-.46,0-2.28,0-4.57,0-6.85Z" style="fill:#ec302e;"/></svg>