<?xml version="1.0" encoding="utf-8"?>
<!-- Generator: Adobe Illustrator 26.0.2, SVG Export Plug-In . SVG Version: 6.00 Build 0)  -->
<svg version="1.1" xmlns="http://www.w3.org/2000/svg" xmlns:xlink="http://www.w3.org/1999/xlink" x="0px" y="0px"
	 viewBox="0 0 90 30" style="enable-background:new 0 0 90 30;" xml:space="preserve">
<style type="text/css">
	.st0{fill:#010624;}
	.st1{fill:#0A0C24;}
	.st2{fill:#FEFEFE;}
	.st3{fill:#FBFCFB;}
	.st4{fill:#EC302E;}
	.st5{fill:#080B24;}
	.st6{fill:#E7E8EB;}
</style>
<g id="Guides">
</g>
<g id="Image">
</g>
<g id="Paths">
	<g>
		<path class="st0" d="M82.9587,16.1239c0,1.0699-0.0016,2.1397,0.0026,3.2096c0.0004,0.1049-0.0283,0.1635-0.1211,0.2171
			c-1.9277,1.1131-3.8537,2.2292-5.7785,3.3472c-0.0832,0.0483-0.144,0.0515-0.2305,0.0012
			c-1.9242-1.1189-3.8503-2.2346-5.7777-3.348c-0.091-0.0526-0.1269-0.1091-0.1267-0.2164c0.0033-2.1397,0.0033-4.2794,0-6.4191
			c-0.0002-0.1069,0.0348-0.1637,0.1262-0.2165c1.9274-1.1137,3.8536-2.2295,5.7771-3.3498
			c0.0976-0.0568,0.1609-0.0399,0.2464,0.0098c1.92,1.1151,3.8407,2.2288,5.7634,3.3392c0.0925,0.0534,0.122,0.1112,0.1216,0.2164
			C82.9571,13.9842,82.9587,15.0541,82.9587,16.1239z"/>
		<path class="st0" d="M26.3227,14.7409c0,1.6541-0.0022,3.3083,0.0038,4.9624c0.0005,0.1466-0.0371,0.1821-0.1798,0.177
			c-0.3235-0.0116-0.6477-0.0072-0.9715-0.0016c-0.1006,0.0017-0.1392-0.0177-0.139-0.131c0.0036-2.4177,0.0034-4.8353,0.0007-7.253
			c-0.0001-0.101,0.0315-0.1258,0.1278-0.1245c0.3875,0.0049,0.7752,0.0082,1.1625-0.0016c0.1258-0.0032,0.1779,0.0435,0.226,0.1521
			c0.7981,1.8017,1.6005,3.6014,2.402,5.4016c0.0163,0.0366,0.0332,0.0728,0.062,0.136c0.1007-0.2286,0.1935-0.4373,0.2848-0.6467
			c0.7118-1.6318,1.4241-3.2633,2.1328-4.8964c0.044-0.1013,0.0888-0.1502,0.2111-0.1466c0.3641,0.0107,0.7287,0.007,1.093,0.002
			c0.1028-0.0014,0.1493,0.0117,0.1491,0.136c-0.0042,2.4119-0.0042,4.8238,0,7.2357c0.0002,0.1241-0.046,0.138-0.1489,0.1363
			c-0.3238-0.0052-0.648-0.009-0.9716,0.0016c-0.1374,0.0045-0.1709-0.0355-0.1705-0.1714c0.005-1.5906,0.0032-3.1811,0.0032-4.7717
			c0-0.0597,0-0.1193,0-0.179c-0.011-0.0013-0.022-0.0027-0.0331-0.004c-0.2222,0.5717-0.4449,1.1432-0.6666,1.7151
			c-0.4206,1.0848-0.8423,2.1692-1.2584,3.2557c-0.0433,0.1131-0.0939,0.1604-0.2216,0.1553
			c-0.2887-0.0114-0.5785-0.0102-0.8673-0.0003c-0.1243,0.0042-0.1784-0.0369-0.2239-0.1529
			c-0.6335-1.6141-1.2729-3.2259-1.9112-4.8381c-0.0206-0.052-0.0453-0.1023-0.0681-0.1534
			C26.3408,14.7371,26.3318,14.739,26.3227,14.7409z"/>
		<path class="st0" d="M16.9128,14.7405c0,1.6482-0.0025,3.2964,0.0039,4.9446c0.0006,0.1585-0.0392,0.2016-0.1963,0.1954
			c-0.3234-0.0129-0.6477-0.0079-0.9714-0.0016c-0.1006,0.0019-0.1228-0.0313-0.1227-0.1267
			c0.0025-2.4175,0.0025-4.835,0.0005-7.2525c-0.0001-0.0902,0.0121-0.1316,0.1184-0.1299
			c0.4047,0.0064,0.8098,0.0087,1.2144-0.0013c0.121-0.003,0.1399,0.07,0.1745,0.1476c0.7925,1.7788,1.5853,3.5575,2.3781,5.3361
			c0.0272,0.061,0.0552,0.1217,0.0939,0.207c0.243-0.5567,0.4757-1.0891,0.7078-1.6218c0.5707-1.3098,1.142-2.6193,1.71-3.9302
			c0.0412-0.0951,0.0865-0.141,0.2006-0.1383c0.3757,0.0088,0.7518,0.0068,1.1277,0.0011c0.0993-0.0015,0.1235,0.0286,0.1234,0.1254
			c-0.0026,2.4175-0.0029,4.835,0.0008,7.2525c0.0002,0.1119-0.0337,0.1329-0.1362,0.131c-0.3353-0.0062-0.671-0.0089-1.0062,0.0011
			c-0.1296,0.0039-0.1471-0.0431-0.1469-0.1574c0.0036-1.602,0.0024-3.2041,0.0023-4.8061c0-0.0576,0-0.1153,0-0.1729
			c-0.0086-0.0027-0.0171-0.0055-0.0257-0.0082c-0.0735,0.1877-0.1473,0.3752-0.2203,0.563
			c-0.5736,1.4765-1.1486,2.9524-1.7174,4.4308c-0.0446,0.116-0.099,0.1545-0.2214,0.1506c-0.2947-0.0095-0.59-0.0093-0.8847,0.0001
			c-0.1136,0.0036-0.1576-0.04-0.1966-0.139c-0.6348-1.6134-1.2733-3.2253-1.9113-4.8374c-0.0226-0.0571-0.0486-0.1128-0.073-0.1692
			C16.9303,14.7363,16.9215,14.7384,16.9128,14.7405z"/>
		<path class="st0" d="M14.3082,14.4599c-0.2849-0.94-0.9053-1.5792-1.8366-1.9031c-0.5235-0.1822-1.0687-0.2357-1.6515-0.2429
			c-0.3326,0.0087-0.6956,0.0289-1.0542,0.0969c-1.2813,0.2401-2.1446,0.953-2.4902,2.2285
			c-0.2863,1.0542-0.2444,2.107,0.1099,3.1395c0.3485,1.0166,1.0398,1.692,2.0795,1.9754c0.9443,0.2574,1.8987,0.2502,2.8416-0.0145
			c1.0412-0.2907,1.7223-0.9675,2.0202-1.9985C14.6423,16.6508,14.6379,15.5488,14.3082,14.4599z M12.9185,17.3767
			c-0.2415,0.7708-0.7968,1.1916-1.5849,1.3116c-0.4035,0.0622-0.8084,0.0506-1.2061-0.0419
			c-0.872-0.2039-1.3319-0.7939-1.5112-1.6399c-0.0622-0.295-0.0795-0.5944-0.081-0.8951c0-0.389,0.0333-0.7722,0.1475-1.1482
			c0.2516-0.8315,0.8243-1.2798,1.6674-1.4027c0.3745-0.055,0.7491-0.0492,1.1222,0.026c0.7332,0.1475,1.2292,0.5698,1.4519,1.2827
			C13.1846,15.7021,13.1802,16.5452,12.9185,17.3767z"/>
		<path class="st0" d="M54.3503,15.1132c-0.0164,0.6456,0.0289,1.4383-0.0219,2.2299c-0.0912,1.4204-0.918,2.3234-2.3232,2.5249
			c-0.7678,0.1101-1.5327,0.1014-2.283-0.1277c-1.0106-0.3086-1.5658-1.0103-1.745-2.0323c-0.05-0.2852-0.0671-0.5738-0.067-0.8635
			c0.0004-1.4344,0.002-2.8688-0.0028-4.3033c-0.0005-0.1329,0.0281-0.177,0.1686-0.1727c0.3583,0.0109,0.7173,0.0096,1.0756,0.0005
			c0.1245-0.0032,0.1502,0.0344,0.1498,0.1534c-0.0043,1.4402-0.0022,2.8804-0.0033,4.3206
			c-0.0002,0.2438,0.0156,0.4864,0.0749,0.7226c0.1475,0.5872,0.5228,0.9499,1.1104,1.0869
			c0.4345,0.1013,0.8727,0.0993,1.3067-0.0022c0.66-0.1543,1.0708-0.6357,1.1449-1.3347c0.017-0.1607,0.0255-0.323,0.0258-0.4845
			c0.002-1.4286,0.0037-2.8573-0.0027-4.2859c-0.0007-0.148,0.0393-0.1809,0.1807-0.1764c0.3467,0.0109,0.6941,0.0093,1.0409,0.0005
			c0.1316-0.0033,0.1755,0.0265,0.1742,0.1682C54.3464,13.3471,54.3503,14.1569,54.3503,15.1132z"/>
		<path class="st0" d="M39.8167,19.8766c0.2966-0.7035,0.5843-1.3873,0.8731-2.0706c0.7397-1.7504,1.4815-3.5,2.2169-5.2523
			c0.0564-0.1343,0.1165-0.1919,0.2723-0.1862c0.3926,0.0144,0.7862,0.0081,1.1793,0.0022c0.096-0.0015,0.1404,0.0296,0.178,0.1171
			c1.0425,2.4229,2.0879,4.8445,3.133,7.2663c0.0157,0.0364,0.0411,0.0699,0.0272,0.1235c-0.4602,0-0.9222-0.0029-1.3841,0.0023
			c-0.0975,0.0011-0.1114-0.0653-0.139-0.1251c-0.2697-0.5861-0.5423-1.171-0.8041-1.7606c-0.0577-0.13-0.13-0.1694-0.2696-0.1677
			c-0.6533,0.008-1.3067,0.0035-1.96,0.0035c-0.057,0-0.114,0-0.1912,0c0.1552-0.3963,0.3035-0.7763,0.453-1.1557
			c0.0321-0.0814,0.106-0.0544,0.1653-0.0547c0.4444-0.0016,0.8888-0.0008,1.3543-0.0008c-0.407-0.9375-0.8065-1.8579-1.2194-2.8089
			c-0.4473,1.1022-0.8801,2.1672-1.3119,3.2327c-0.3612,0.8911-0.7231,1.782-1.0796,2.675
			c-0.0462,0.1158-0.0999,0.1674-0.2349,0.1639C40.6653,19.8697,40.2548,19.8766,39.8167,19.8766z"/>
		<path class="st0" d="M37.4205,18.1149c0.3021-0.7504,0.5858-1.4548,0.8693-2.1593c0.4622-1.1488,0.9258-2.2971,1.3835-3.4477
			c0.0401-0.1008,0.0837-0.14,0.1956-0.1384c0.4898,0.0068,0.9798,0.0029,1.4938,0.0029c-0.1666,0.3833-0.3239,0.7466-0.4823,1.1094
			c-0.9103,2.0854-1.8216,4.1703-2.7289,6.2569c-0.046,0.1057-0.0991,0.144-0.2169,0.1414
			c-0.4047-0.0088-0.8097-0.0047-1.2145-0.0026c-0.0803,0.0004-0.1332-0.0079-0.1714-0.0995
			c-1.0229-2.4569-2.05-4.9121-3.076-7.3678c-0.0019-0.0044,0.0018-0.0111,0.0069-0.0379c0.2926,0,0.5897,0,0.8868,0
			c0.2024,0,0.4052,0.0069,0.6072-0.0028c0.1061-0.0051,0.1505,0.0357,0.188,0.1294c0.6126,1.5292,1.2287,3.057,1.8441,4.5851
			C37.1383,17.4135,37.2709,17.7432,37.4205,18.1149z"/>
		<path class="st0" d="M6.3686,18.3089c0,0.4006-0.0029,0.7871,0.002,1.1734c0.0013,0.1006-0.0677,0.1075-0.131,0.1292
			c-0.7698,0.2647-1.5643,0.3455-2.373,0.3132c-0.5153-0.0206-1.0222-0.092-1.5134-0.2584
			c-1.0142-0.3434-1.6853-1.0269-1.9887-2.0497c-0.2832-0.9551-0.3054-1.928-0.0629-2.8944
			c0.3054-1.2167,1.1171-1.9409,2.3136-2.2274c1.2038-0.2883,2.4055-0.2431,3.5918,0.1268c0.1248,0.0389,0.1691,0.097,0.1653,0.2303
			c-0.0102,0.3577-0.0035,0.7158-0.0035,1.0904c-0.4483-0.1837-0.8956-0.3111-1.3609-0.369
			c-0.6127-0.0763-1.2225-0.0756-1.8234,0.0872c-0.8604,0.2331-1.3744,0.7946-1.5349,1.6666
			c-0.1036,0.5625-0.0864,1.1272,0.054,1.6851c0.2399,0.953,0.87,1.4806,1.8178,1.6439c0.9149,0.1576,1.8058,0.042,2.6727-0.2805
			C6.2471,18.3559,6.2998,18.3352,6.3686,18.3089z"/>
		<path class="st0" d="M63.4148,16.7366c0,0.9889-0.0036,1.9778,0.0038,2.9667c0.0011,0.1485-0.0405,0.1814-0.1819,0.1769
			c-0.3409-0.0109-0.6825-0.0114-1.0234,0.0001c-0.1473,0.005-0.1901-0.0266-0.1896-0.1843
			c0.0066-1.9662,0.0022-3.9324,0.008-5.8987c0.0005-0.1652-0.0258-0.2242-0.2098-0.2197
			c-0.5895,0.0143-1.1797-0.0005-1.7694,0.0092c-0.1505,0.0025-0.1814-0.044-0.1762-0.1838
			c0.011-0.3003,0.0092-0.6015,0.0004-0.9019c-0.0033-0.1119,0.0337-0.131,0.1361-0.1309c1.8043,0.003,3.6086,0.003,5.4129,0
			c0.1043-0.0002,0.1396,0.0238,0.1369,0.1338c-0.0077,0.3121-0.0073,0.6246,0.0001,0.9367
			c0.0027,0.1146-0.0321,0.146-0.1462,0.1449c-0.6129-0.0055-1.2261,0.0027-1.8389-0.0064
			c-0.1431-0.0021-0.1662,0.0447-0.1656,0.1734C63.4171,14.7472,63.4148,15.7419,63.4148,16.7366z"/>
		<path class="st0" d="M55.7523,16.1065c0-1.1912,0.002-2.3824-0.003-3.5736c-0.0005-0.1258,0.0241-0.1679,0.1586-0.164
			c0.3582,0.0105,0.7171,0.0098,1.0754-0.0001c0.1294-0.0036,0.161,0.0295,0.1607,0.16c-0.0048,1.9776-0.0012,3.9553-0.0074,5.9329
			c-0.0005,0.1634,0.0326,0.2104,0.2037,0.2089c1.0408-0.0092,2.0817-0.0016,3.1225-0.0084c0.1466-0.001,0.184,0.0405,0.1788,0.1824
			c-0.011,0.3003-0.0089,0.6014-0.0006,0.9019c0.0031,0.1116-0.0348,0.1324-0.1373,0.1322
			c-1.5382-0.003-3.0763-0.0042-4.6145,0.0014c-0.1413,0.0005-0.1388-0.0629-0.1386-0.1653
			C55.7531,18.512,55.7523,17.3092,55.7523,16.1065z"/>
		<path class="st1" d="M66.8607,13.5902c-0.3392,0.0027-0.6213-0.2752-0.6223-0.6131c-0.001-0.3391,0.2764-0.616,0.6175-0.6163
			c0.3323-0.0004,0.6052,0.2679,0.6133,0.603C67.4775,13.2996,67.1978,13.5875,66.8607,13.5902z"/>
		<path class="st2" d="M81.9174,16.1352c0,0.8618-0.0023,1.7237,0.0028,2.5855c0.0007,0.1133-0.0334,0.1715-0.1327,0.2288
			c-1.569,0.9048-3.1355,1.8139-4.7006,2.7253c-0.0995,0.058-0.1739,0.0641-0.2778,0.0036
			c-1.5646-0.9121-3.1312-1.8208-4.7003-2.7252c-0.1065-0.0614-0.1366-0.1292-0.1363-0.2454
			c0.0033-1.7295,0.0031-3.4589-0.0004-5.1884c-0.0002-0.1064,0.0332-0.1623,0.1257-0.2157
			c1.5788-0.9106,3.1557-1.8247,4.731-2.7415c0.0852-0.0496,0.1435-0.0532,0.2311-0.0021c1.5802,0.92,3.1623,1.8368,4.7465,2.7498
			c0.0901,0.0519,0.1132,0.109,0.1129,0.2051C81.9161,14.3884,81.9174,15.2618,81.9174,16.1352z"/>
		<path class="st3" d="M66.852,13.4938c-0.2871-0.0011-0.5153-0.227-0.5178-0.5125c-0.0025-0.2905,0.2349-0.5321,0.5218-0.5312
			c0.2855,0.0009,0.5243,0.2474,0.5188,0.5352C67.3693,13.2703,67.1384,13.4949,66.852,13.4938z"/>
		<path class="st0" d="M72.8958,16.2812c0-0.6246-0.0003-1.2492,0.0002-1.8738c0.0001-0.1992,0.0247-0.2155,0.1887-0.1206
			c1.118,0.6472,2.235,1.2963,3.3542,1.9415c0.12,0.0692,0.1652,0.1586,0.1649,0.2955c-0.0034,1.2434-0.0019,2.4868-0.0023,3.7302
			c-0.0001,0.202-0.0245,0.2154-0.2043,0.1113c-1.1031-0.6385-2.2051-1.2791-3.3101-1.9143
			c-0.1354-0.0778-0.1966-0.1697-0.1945-0.3308C72.9005,17.5073,72.8958,16.8942,72.8958,16.2812z"/>
		<path class="st0" d="M76.9429,15.6771c-0.0674,0.0048-0.1222-0.0257-0.1779-0.058c-1.0723-0.6215-2.1452-1.2419-3.2174-1.8634
			c-0.162-0.0939-0.1607-0.1293,0.0068-0.2265c1.0622-0.616,2.1258-1.2297,3.1862-1.8489c0.148-0.0864,0.2729-0.0808,0.4184,0.0042
			c1.0552,0.6162,2.1134,1.2274,3.1705,1.8405c0.1866,0.1083,0.186,0.1292-0.0069,0.241c-1.0571,0.613-2.1145,1.2257-3.1717,1.8386
			C77.086,15.6424,77.0231,15.685,76.9429,15.6771z"/>
		<path class="st4" d="M77.2955,18.5999c-0.0002-0.5547-0.0008-1.1095,0.0003-1.6642c0.0004-0.1758,0.0254-0.1916,0.1731-0.1061
			c0.9621,0.557,1.9237,1.115,2.8848,1.6738c0.1434,0.0834,0.1429,0.1232-0.0038,0.2085c-0.9561,0.5559-1.9129,1.1109-2.8702,1.6648
			c-0.1549,0.0896-0.1831,0.0717-0.1835-0.1126C77.2949,19.7093,77.2957,19.1546,77.2955,18.5999z"/>
		<path class="st5" d="M67.1335,13.3215c-0.0968,0.0495-0.1205-0.0308-0.1567-0.0846c-0.0321-0.0477-0.0614-0.0973-0.0913-0.1465
			c-0.0256-0.0422-0.0575-0.0701-0.1118-0.0607c-0.0712,0.0124-0.0394,0.0694-0.0507,0.1089
			c-0.019,0.0665,0.0557,0.193-0.0649,0.1883c-0.093-0.0036-0.0354-0.123-0.0431-0.1894c-0.0099-0.0854-0.0086-0.1733-0.001-0.2591
			c0.0077-0.0865-0.0493-0.2252,0.0357-0.2487c0.1253-0.0346,0.2763-0.047,0.405,0.0225c0.1133,0.0612,0.127,0.258,0.0123,0.3184
			c-0.1088,0.0573-0.0809,0.1004-0.0317,0.1728C67.0728,13.1985,67.1261,13.2474,67.1335,13.3215z"/>
		<path class="st6" d="M66.8265,12.9337c-0.0697,0.0122-0.1073-0.0121-0.1078-0.1087c-0.0006-0.1012,0.0357-0.1357,0.1297-0.1206
			c0.0749,0.012,0.1774-0.0069,0.1782,0.1105C67.0275,12.9403,66.9267,12.9306,66.8265,12.9337z"/>
	</g>
</g>
</svg>
